# xmcd CD database file
#
# Track frame offsets:
#	150
#	41272
#	86422
#	122142
#	151007
#	204375
#	246825
#
# Disc length: 4074 seconds
#
# Revision: 0
# Processed by: cddbd v1.5PL3 Copyright (c) Steve Scherf et al.
# Submitted via: CDex 1.51
#
DISCID=4b0fe807
DTITLE=Miles Davis - The Greatest History 1955-1969 II
DYEAR=1900
DGENRE=Jazz
TTITLE0=Someday My Prince Will Come
TTITLE1=Bye Bye Blackbird
TTITLE2=On Green Dolphin Street
TTITLE3=Seven Steps to Heaven
TTITLE4=Autumn Leaves
TTITLE5=Milestones
TTITLE6=Stella by Starlight
EXTD=
EXTT0=
EXTT1=
EXTT2=
EXTT3=
EXTT4=
EXTT5=
EXTT6=
PLAYORDER=
